<svg width="103" height="34" viewBox="0 0 103 34" fill="none" xmlns="http://www.w3.org/2000/svg">
<g clip-path="url(#clip0_23_1215)">
<path d="M23.6323 9.84813L12.3659 3.36326C12.2546 3.29921 12.1284 3.2655 12 3.2655C11.8716 3.2655 11.7454 3.29921 11.6341 3.36326L0.3675 9.84813C0.25579 9.91244 0.163002 10.0051 0.0984836 10.1166C0.0339656 10.2282 -3.01329e-06 10.3549 2.00486e-10 10.4838L2.00486e-10 23.4494C-3.01329e-06 23.5783 0.0339656 23.7049 0.0984836 23.8165C0.163002 23.9281 0.25579 24.0207 0.3675 24.085L11.6341 30.5697C11.7454 30.6337 11.8716 30.6674 12 30.6674C12.1284 30.6674 12.2546 30.6337 12.3659 30.5697L23.6325 24.085C23.7442 24.0207 23.837 23.9281 23.9015 23.8165C23.966 23.7049 24 23.5783 24 23.4494V10.4838C24 10.2213 23.8599 9.97891 23.6323 9.84813ZM11.1412 7.52004C11.1413 7.54152 11.1357 7.56263 11.1249 7.58123C11.1142 7.59983 11.0987 7.61527 11.0801 7.62598L7.04991 9.94816C7.03131 9.9589 7.01588 9.97435 7.00514 9.99294C6.99441 10.0115 6.98876 10.0326 6.98876 10.0541C6.98876 10.0756 6.99441 10.0967 7.00514 10.1153C7.01588 10.1339 7.03131 10.1493 7.04991 10.16L11.0798 12.4796C11.1177 12.5014 11.1412 12.5417 11.1412 12.5854V14.2707C11.1413 14.2922 11.1357 14.3132 11.125 14.3318C11.1143 14.3504 11.0989 14.3659 11.0803 14.3766C11.0617 14.3874 11.0406 14.393 11.0192 14.393C10.9977 14.393 10.9766 14.3874 10.9581 14.3766L3.63319 10.1608C3.6146 10.15 3.59916 10.1346 3.58843 10.116C3.57769 10.0974 3.57204 10.0763 3.57204 10.0549C3.57204 10.0334 3.57769 10.0123 3.58843 9.99369C3.59916 9.9751 3.6146 9.95965 3.63319 9.94891L10.9579 5.72838C11.0393 5.68151 11.1412 5.74038 11.1412 5.83432V7.52004ZM20.3666 10.1608L13.0358 14.3802C13.0172 14.3909 12.9961 14.3965 12.9747 14.3965C12.9533 14.3965 12.9322 14.3908 12.9137 14.3801C12.8951 14.3694 12.8797 14.3539 12.869 14.3354C12.8583 14.3168 12.8527 14.2958 12.8527 14.2744V12.5891C12.8527 12.5453 12.8761 12.505 12.9141 12.4832L16.95 10.1604C17.0317 10.1135 17.0317 9.9956 16.95 9.94845L12.9141 7.6227C12.8955 7.612 12.88 7.59658 12.8693 7.57799C12.8585 7.5594 12.8529 7.53831 12.8529 7.51685V5.83113C12.8529 5.80967 12.8586 5.78858 12.8693 5.76998C12.88 5.75139 12.8954 5.73595 12.914 5.72521C12.9326 5.71447 12.9537 5.70882 12.9752 5.70882C12.9966 5.70881 13.0177 5.71446 13.0363 5.7252L20.3671 9.9491C20.4483 9.99598 20.4483 10.1138 20.3666 10.1608Z" fill="#ACD506"/>
</g>
<path d="M36.04 16.48V9.688L38.824 8.08H44.896L47.68 9.688V12.88H44.32V10.96H39.4V14.968H44.896L47.68 16.576V23.512L44.896 25.12H38.584L35.8 23.512V20.32H39.16V22.24H44.32V18.088H38.824L36.04 16.48ZM50.5666 25V8.2H53.9266V22.12H59.6626V25H50.5666ZM74.1888 23.512L71.4048 25.12H63.8928L61.1088 23.512V9.688L63.8928 8.08H71.4048L74.1888 9.688V23.512ZM64.4688 10.96V22.24H70.8288V10.96H64.4688ZM83.521 11.08V25H80.161V11.08H75.625V8.2H88.057V11.08H83.521ZM93.2256 25V17.824L87.8256 8.2H91.4736L94.8816 14.488H94.9296L98.3616 8.2H102.01L96.5856 17.848V25H93.2256Z" fill="white"/>
<defs>
<clipPath id="clip0_23_1215">
<rect width="24" height="27.4725" fill="white" transform="translate(0 3.26379)"/>
</clipPath>
</defs>
</svg>
